<svg width="155" height="41" viewBox="0 0 155 41" fill="none" xmlns="http://www.w3.org/2000/svg">
  <path d="M0 0.728001V39.928H22.064V32.032H8.4V0.728001H0Z" fill="white"/>
  <path d="M77.7542 12.576C68.7422 12.576 61.4142 19.904 61.4142 28.912C61.4142 37.92 68.7422 45.248 77.7542 45.248C86.7662 45.248 94.0942 37.92 94.0942 28.912C94.0942 19.904 86.7662 12.576 77.7542 12.576ZM77.7542 39.056C72.5502 39.056 68.2142 34.72 68.2142 29.52C68.2142 24.32 72.5502 19.984 77.7542 19.984C82.9582 19.984 87.2942 24.32 87.2942 29.52C87.2942 34.72 82.9582 39.056 77.7542 39.056Z" fill="white"/>
  <circle cx="133.92" cy="20.624" r="16.928" fill="white"/>
</svg>